<?xml version="1.0" encoding="UTF-8" standalone="no"?>
<!-- Created with Inkscape (http://www.inkscape.org/) -->

<svg
   xmlns:dc="http://purl.org/dc/elements/1.1/"
   xmlns:cc="http://creativecommons.org/ns#"
   xmlns:rdf="http://www.w3.org/1999/02/22-rdf-syntax-ns#"
   xmlns:svg="http://www.w3.org/2000/svg"
   xmlns="http://www.w3.org/2000/svg"
   xmlns:sodipodi="http://sodipodi.sourceforge.net/DTD/sodipodi-0.dtd"
   xmlns:inkscape="http://www.inkscape.org/namespaces/inkscape"
   width="186"
   height="55"
   viewBox="0 0 49.212501 14.552083"
   version="1.1"
   id="svg8"
   inkscape:version="0.92.2pre0 (973e216, 2017-07-25)"
   sodipodi:docname="reaktiv.svg">
  <defs
     id="defs2" />
  <sodipodi:namedview
     id="base"
     pagecolor="#ffffff"
     bordercolor="#666666"
     borderopacity="1.0"
     inkscape:pageopacity="0.0"
     inkscape:pageshadow="2"
     inkscape:zoom="4.0812918"
     inkscape:cx="106.16954"
     inkscape:cy="31.73542"
     inkscape:document-units="px"
     inkscape:current-layer="layer1"
     showgrid="false"
     units="px"
     inkscape:window-width="1366"
     inkscape:window-height="740"
     inkscape:window-x="0"
     inkscape:window-y="0"
     inkscape:window-maximized="1" />
  <metadata
     id="metadata5">
    <rdf:RDF>
      <cc:Work
         rdf:about="">
        <dc:format>image/svg+xml</dc:format>
        <dc:type
           rdf:resource="http://purl.org/dc/dcmitype/StillImage" />
        <dc:title></dc:title>
      </cc:Work>
    </rdf:RDF>
  </metadata>
  <g
     inkscape:label="Layer 1"
     inkscape:groupmode="layer"
     id="layer1"
     transform="translate(0,-282.44792)">
    <g
       id="g32"
       transform="translate(-82.885307,117.71239)">
      <g
         aria-label="reaktiv.js"
         style="font-style:normal;font-variant:normal;font-weight:normal;font-stretch:normal;font-size:16.93333244px;line-height:1.25;font-family:'Timbra Sans';-inkscape-font-specification:'Timbra Sans';letter-spacing:0px;word-spacing:0px;fill:#000000;fill-opacity:1;stroke:none;stroke-width:0.26458332"
         id="text16">
        <path
           d="m 87.887765,177.0676 h -0.07441 q -0.23151,0 -0.297656,-0.0744 -0.05788,-0.0827 -0.05788,-0.339 0,-0.46302 0.07441,-1.03352 0.01654,-0.19844 0.01654,-0.46302 v -0.8351 q 0.0083,-0.0331 0.0083,-0.0827 l -0.0083,-0.15709 -0.0083,-0.8847 q 0.0083,-0.10749 0.0083,-1.09141 0,-0.71107 -0.08268,-1.60404 0,-0.35553 0.0083,-0.52916 l 0.0083,-0.23151 q 0,-0.18191 -0.01654,-0.36381 -0.0083,-0.0744 -0.0083,-0.15709 0,-0.43822 0.09095,-0.60358 0.03307,-0.0579 0.148828,-0.0992 0.07441,-0.0331 0.157097,-0.0331 0.165364,0 0.239778,0.12402 0.04134,0.091 0.04134,0.27285 l -0.0248,0.28112 q 0.504362,-0.50436 1.364257,-0.66973 0.08268,-0.008 0.322461,-0.008 0.264584,0 0.396875,0.0496 0.06615,0.0331 0.06615,0.16537 0,0.21497 -0.08268,0.30592 -0.08268,0.0827 -0.190169,0.0827 -0.04134,0 -0.07442,-0.008 -0.03307,-0.008 -0.05788,-0.008 -0.438216,0 -0.835091,0.17363 -0.231511,0.091 -0.413412,0.25632 -0.471289,0.41341 -0.51263,0.69453 l 0.0083,0.5209 0.0083,0.14056 q 0.05788,0.71106 0.05788,1.21543 0,0.1819 -0.01654,0.32246 -0.02481,0.37207 -0.02481,0.75241 0,0.38033 0.02481,0.76894 l 0.0248,0.91777 q 0,0.28112 -0.05788,1.61231 0,0.0496 0.01654,0.14883 0.01654,0.091 0.01654,0.30592 -0.0083,0.12403 -0.264584,0.16537 z"
           style="stroke-width:0.26458332"
           id="path34"
           inkscape:connector-curvature="0" />
        <path
           d="m 93.286919,177.0924 q -0.256315,0 -0.636654,-0.0827 -0.37207,-0.0827 -0.694531,-0.5209 -0.529167,-0.77721 -0.603581,-1.69499 -0.01654,-0.37207 -0.04961,-0.75241 -0.05788,-0.62011 -0.05788,-1.2485 0.0083,-3.29075 1.050065,-4.22506 0.388607,-0.29766 0.84336,-0.29766 0.107487,0 0.446484,0.0496 0.347266,0.0496 0.768945,0.43822 0.380339,0.39687 0.487826,0.96738 0.14056,0.7276 0.14056,1.97611 l -0.0083,0.44648 q -0.0083,0.3638 -0.0083,0.73587 -0.0248,0.0827 -0.79375,0.0827 l -1.000455,-0.0165 -0.33073,-0.008 q -0.190169,0.008 -0.396875,0.0413 -0.198437,0.0248 -0.405143,0.0248 l -0.173633,-0.008 q 0.01654,1.14101 0.173633,1.99264 l 0.04961,0.30593 q 0.140559,0.55397 0.51263,1.00872 0.190169,0.21497 0.587044,0.21497 0.206706,0 0.380339,-0.0331 0.181901,-0.0413 0.595312,-0.20671 0.330729,-0.16536 0.438216,-0.16536 0.148828,0.008 0.256315,0.24805 0.02481,0.0579 0.02481,0.12402 0,0.1571 -0.09095,0.19844 -0.388606,0.16536 -0.942578,0.34726 -0.289388,0.0579 -0.562239,0.0579 z m 1.107942,-4.69635 v -0.4961 q 0,-0.5705 -0.06615,-1.11621 l -0.04134,-0.47129 q -0.06615,-1.19062 -0.868164,-1.48001 -0.124023,-0.0331 -0.239778,-0.0331 -0.223242,0 -0.438216,0.16536 -0.214974,0.16537 -0.363802,0.4961 -0.148829,0.32246 -0.206706,0.60358 l -0.05788,0.27285 q -0.206705,0.90124 -0.248047,2.05052 0.272852,-0.008 0.578776,-0.008 0.438217,0 0.669727,0.008 l 0.115755,-0.008 h 0.396875 l 0.231511,-0.008 q 0.421679,0 0.537434,0.0248 z"
           style="stroke-width:0.26458332"
           id="path36"
           inkscape:connector-curvature="0" />
        <path
           d="m 97.859249,177.13374 q -0.37207,0 -0.669727,-0.19844 -0.338997,-0.24804 -0.454752,-0.5457 -0.115755,-0.29765 -0.165365,-0.64492 l -0.04134,-0.23151 q -0.08268,-0.42995 -0.08268,-0.8847 0,-1.36426 0.338997,-2.21589 0.314193,-0.96738 2.00918,-0.96738 l 0.239778,0.008 0.28112,-0.008 0.0083,-1.18236 q 0,-0.37207 -0.06615,-0.67799 -0.19017,-0.8599 -0.959115,-0.8599 -0.248047,0 -0.454753,0.0909 -0.388606,0.19017 -0.520898,0.61185 -0.04134,0.11576 -0.206706,0.11576 -0.06615,0 -0.115755,-0.0248 -0.198437,-0.10748 -0.198437,-0.23978 0,-0.19016 0.107487,-0.38033 0.206705,-0.34727 0.405143,-0.48783 0.347265,-0.23151 1.02526,-0.25631 0.661459,0.008 1.083138,0.42994 0.496094,0.58705 0.496094,1.45521 l -0.01654,0.27285 q 0.0083,1.44694 0.02481,2.1084 0.01654,0.43822 0.01654,0.86817 l -0.0083,0.64492 -0.0083,0.48782 q 0,0.41341 0.02481,0.82683 0.0248,0.48782 0.0248,0.96738 l 0.01654,0.44648 q 0,0.27285 -0.107487,0.32246 -0.107487,0.0496 -0.248047,0.0496 -0.132292,0 -0.181901,-0.0661 -0.04961,-0.0661 -0.107487,-0.23151 l -0.0083,-0.0248 q -0.115755,0.0413 -0.231511,0.0992 -0.636653,0.32246 -1.248502,0.32246 z m 0.09922,-0.59531 q 0.46302,0 1.083138,-0.31419 l 0.314192,-0.14883 -0.04134,-4.0597 q -0.214974,-0.0165 -0.347265,-0.0165 -0.28112,0.0248 -0.537435,0.0248 -0.694531,0.008 -0.942578,0.3638 -0.355534,0.56224 -0.396875,1.66191 l -0.0083,0.0909 q -0.0083,0.24805 -0.0083,0.66973 0,0.42168 0.04961,0.7028 0.07441,0.30592 0.165364,0.59531 0.157097,0.42995 0.669727,0.42995 z"
           style="stroke-width:0.26458332"
           id="path38"
           inkscape:connector-curvature="0" />
        <path
           d="m 101.87761,177.11721 q -0.14883,-0.0165 -0.14883,-0.22325 0,-0.0661 0.0165,-0.16536 0.0165,-0.0992 0.0165,-0.20671 -0.008,-0.28112 -0.008,-0.5705 0.0248,-0.36381 0.0248,-0.71107 0,-0.1819 -0.008,-0.35554 -0.0331,-0.73587 -0.0331,-1.09967 l 0.008,-0.19017 -0.0165,-0.48783 q 0,-0.19843 0.0165,-0.3886 0.0331,-0.30593 0.0331,-0.61185 0,-0.32246 -0.0331,-0.64492 -0.0331,-0.44649 -0.0331,-0.8599 0.008,-0.19844 0.008,-0.41341 0,-0.33073 -0.0248,-0.81855 v -0.47129 l 0.008,-0.29766 -0.008,-0.31419 q -0.0165,-0.19844 -0.0165,-0.39688 l 0.008,-0.25631 q -0.008,-1.52962 -0.0248,-1.66192 -0.0165,-0.14056 -0.0165,-0.44648 0,-0.35553 0.28112,-0.35553 0.28939,0 0.33899,0.12402 0.0496,0.12402 0.0496,0.24805 0,0.0331 -0.008,0.0579 -0.0496,0.42995 -0.0496,0.8599 0,0.34726 0.0331,0.68626 0.0331,0.45475 0.0413,1.33946 0,0.68626 -0.008,0.85162 -0.008,0.1571 -0.008,0.3142 0,0.2067 0.0165,0.41341 l 0.0165,0.71933 q 0.37207,-0.19017 0.62011,-0.45475 0.21498,-0.21497 0.53744,-0.63665 0.17363,-0.20671 0.23978,-0.32246 0.16536,-0.19844 0.23978,-0.339 0.55397,-1.09968 0.61185,-1.36426 0.0413,-0.19017 0.091,-0.31419 0.0496,-0.12403 0.19017,-0.14056 0.16536,0 0.27285,0.0496 0.11575,0.0496 0.11575,0.13229 0,0.091 -0.14056,0.56224 -0.45475,1.05006 -0.58704,1.29811 -0.13229,0.24805 -0.3638,0.59531 -0.19844,0.29766 -0.87644,0.97565 0.14056,0.20671 0.29766,0.40515 0.33073,0.42994 0.59531,0.90123 1.05834,1.93477 1.69499,3.83646 0.0413,0.12403 0.17363,0.42168 0.091,0.30593 0.091,0.42995 -0.008,0.091 -0.12402,0.1819 -0.10749,0.0827 -0.22324,0.0827 h -0.10749 q -0.0827,-0.008 -0.14883,-0.17363 -0.0579,-0.16536 -0.1819,-0.47129 -0.45475,-1.08314 -0.61185,-1.54616 -0.0744,-0.23151 -0.16536,-0.46302 -0.41341,-0.76068 -0.46302,-1.00872 l -0.0827,-0.17364 q -0.0579,-0.15709 -0.28112,-0.52916 -0.7276,-1.14102 -0.91777,-1.32292 l -0.0992,-0.0909 q -0.19017,0.1571 -0.3886,0.29766 l 0.0165,1.0666 q 0,2.50527 0.0248,2.79466 0.0165,0.17363 0.0165,0.35553 0,0.17364 -0.0165,0.34727 -0.0165,0.12402 -0.0248,0.29766 -0.0165,0.23977 -0.0496,0.42994 -0.0248,0.19017 -0.0992,0.20671 -0.11575,0.0165 -0.34726,0.0165 z"
           style="stroke-width:0.26458332"
           id="path40"
           inkscape:connector-curvature="0" />
        <path
           d="m 109.02136,177.0676 q -0.0992,0 -0.28112,-0.0165 -0.17363,-0.0165 -0.3638,-0.16536 -0.38861,-0.36381 -0.47129,-0.92605 -0.0496,-0.35553 -0.0496,-0.67799 0,-0.19844 0.0165,-0.38034 0.12403,-1.46348 0.12403,-2.93522 0,-0.69453 -0.0331,-1.21543 l -0.008,-0.47956 q 0,-0.39687 0.0248,-0.78548 l 0.008,-0.12402 -0.41341,-0.0248 q -0.0413,0 -0.12403,0.008 -0.0744,0.008 -0.16536,0.008 -0.47129,0 -0.47129,-0.20671 0,-0.0909 0.0331,-0.22324 0.0661,-0.17363 0.38861,-0.17363 l 0.0744,0.008 0.48783,-0.008 q 0.091,0.008 0.20671,0.008 v -0.46302 q -0.008,-0.1323 -0.008,-0.36381 0,-0.23151 -0.008,-0.35553 0,-0.49609 -0.0331,-0.7276 -0.008,-0.0744 -0.008,-0.27286 0,-0.23977 0.0579,-0.27285 0.13229,-0.0496 0.28112,-0.0496 0.33899,0 0.33899,0.30593 0,0.0331 -0.008,0.0579 -0.0496,0.33899 -0.0496,0.65319 0,0.35553 0.0331,0.52089 0.0165,0.37207 0.0165,0.99219 0.16537,0 0.33073,-0.0165 l 0.11576,-0.008 q 0.0661,0 0.12402,0.008 0.0662,0.008 0.13229,0.008 0.12403,0 0.21498,-0.0165 0.0992,-0.0248 0.22324,-0.0248 0.12402,0 0.1819,0.0579 0.0661,0.0496 0.0661,0.27285 v 0.11576 q -0.0165,0.12402 -0.35554,0.14882 -0.14056,0.008 -0.60358,0.008 l -0.14883,-0.008 -0.28112,0.0248 v 0.80202 q 0,1.05833 -0.0496,2.01745 0,0.3638 0.008,0.55397 0.008,0.23151 0.008,0.47129 -0.008,0.25631 -0.0331,0.52916 -0.0248,0.27285 -0.0331,0.53744 -0.008,0.22324 -0.0248,0.47955 -0.0165,0.24805 -0.0165,0.82683 0,0.22324 0.10748,0.5457 0.11576,0.38034 0.39688,0.38034 0.0992,0 0.33073,-0.0579 0.15709,-0.0413 0.30592,-0.0992 0.091,-0.0496 0.16537,-0.0496 0.13229,0 0.19843,0.14883 0.0744,0.14883 0.0744,0.23978 0,0.13229 -0.46302,0.29766 -0.26459,0.0909 -0.57051,0.0909 z"
           style="stroke-width:0.26458332"
           id="path42"
           inkscape:connector-curvature="0" />
        <path
           d="m 111.79948,177.0676 q -0.14056,0 -0.19844,-0.0331 -0.0827,-0.0744 -0.0827,-0.30592 0,-0.0909 0.008,-0.17363 0,-0.33073 -0.008,-0.57878 -0.0165,-0.28112 -0.0165,-0.56224 l 0.008,-0.37207 q 0.0165,-0.34727 0.0165,-0.69453 v -0.17363 q 0,-0.26459 0.0165,-0.5209 0.0165,-0.37207 0.0165,-0.73587 0,-0.37207 -0.0165,-0.74414 v -0.23978 q 0,-0.24805 0.008,-0.48783 0.008,-0.23978 0.008,-0.47129 l -0.008,-0.95084 0.008,-0.81856 q -0.008,-0.16536 -0.008,-0.39687 0,-0.25632 0.0248,-0.29766 0.0827,-0.091 0.16536,-0.091 0.0827,0 0.11576,0 0.091,0 0.1571,0.0165 0.0165,0.008 0.0579,0.0248 0.0496,0.0165 0.0827,0.0413 0.0413,0.0248 0.0413,0.0496 -0.0165,0.31419 -0.0165,0.58705 v 0.94257 q 0,0.89297 -0.0248,1.77767 -0.0248,0.65319 -0.0248,1.30638 v 0.28112 q 0,0.57051 -0.0248,1.14102 l -0.008,0.25631 q 0,0.26459 0.0248,0.52917 0.0248,0.30592 0.0248,0.60358 0,0.0744 -0.008,0.28939 0,0.21497 -0.0165,0.42995 -0.0165,0.21497 -0.0413,0.28112 -0.0165,0.0579 -0.10749,0.0744 -0.091,0.0165 -0.17363,0.0165 z m 0.21498,-9.91361 -0.18191,-0.008 -0.10748,-0.008 q -0.1819,0 -0.1819,-0.27285 l -0.0165,-0.34726 q -0.0165,-0.0992 -0.0165,-0.30593 0,-0.0909 0.23151,-0.11575 0.0827,-0.008 0.30593,-0.008 0.0827,0.0165 0.10749,0.0992 0.0248,0.0744 0.0248,0.23978 -0.0248,0.17363 -0.0248,0.27285 0,0.0992 -0.008,0.19017 -0.0165,0.22324 -0.0496,0.24804 -0.0248,0.0165 -0.0827,0.0165 z"
           style="stroke-width:0.26458332"
           id="path44"
           inkscape:connector-curvature="0" />
        <path
           d="m 115.82611,177.14201 q -0.1571,0 -0.23151,-0.10749 -0.28939,-0.46302 -0.35553,-0.81028 -0.12403,-0.61185 -0.26459,-1.2237 -0.11575,-0.5209 -0.2067,-1.05833 -0.10749,-0.59532 -0.23978,-1.18236 -0.12403,-0.55397 -0.20671,-1.11621 -0.0827,-0.60358 -0.22324,-1.19889 -0.19844,-0.8351 -0.19844,-1.07487 -0.0496,-0.3142 -0.0496,-0.56224 0,-0.27286 0.0579,-0.33073 0.0579,-0.0661 0.19844,-0.0661 0.091,0 0.1819,0.0331 0.091,0.0331 0.1571,0.27286 0.0165,0.0909 0.0165,0.13229 0.0413,0.64492 0.37207,2.21588 0.0992,0.46302 0.1819,0.91778 0.0909,0.48782 0.19844,0.97565 0.19017,0.91777 0.28112,1.52962 0.0413,0.37207 0.14056,0.73587 l 0.10749,0.51263 q 0.0744,0.25632 0.13229,0.41341 0.0331,-0.12402 0.11575,-0.53743 0.17364,-0.94258 0.25632,-1.33119 0.0661,-0.42168 0.14883,-0.85162 0.14056,-0.71934 0.23151,-1.43041 l 0.0496,-0.35553 q 0.091,-0.85163 0.35553,-2.25723 0.0744,-0.3886 0.1819,-0.78548 0.0331,-0.0827 0.24805,-0.0827 0.25631,0 0.29765,0.10748 0.0165,0.10749 0.0165,0.21498 0,0.26458 -0.0992,0.52917 -0.0496,0.17363 -0.0827,0.34726 -0.0413,0.27285 -0.0992,0.5457 -0.0827,0.33073 -0.12402,0.66146 -0.11576,1.18236 -0.32246,2.35645 -0.14883,0.66146 -0.19844,1.05833 -0.0413,0.32246 -0.14056,0.65319 -0.0661,0.25632 -0.10749,0.49609 -0.10748,0.57051 -0.27285,1.17409 -0.0992,0.33073 -0.17363,0.39688 -0.16537,0.0827 -0.33073,0.0827 z"
           style="stroke-width:0.26458332"
           id="path46"
           inkscape:connector-curvature="0" />
        <path
           d="m 119.57988,177.07586 q -0.19843,0 -0.31419,-0.0413 -0.11575,-0.0496 -0.12402,-0.11575 -0.0496,-0.26459 -0.0496,-0.40514 0,-0.0248 0.008,-0.10749 0.008,-0.0909 0.091,-0.19017 0.0909,-0.0579 0.32246,-0.0579 0.42168,0 0.47956,0.14883 0.0331,0.0827 0.0496,0.19017 0.008,0.0496 0.008,0.091 0,0.0744 -0.0248,0.17363 -0.0165,0.0992 -0.0827,0.23151 -0.0496,0.0827 -0.36381,0.0827 z"
           style="stroke-width:0.26458332"
           id="path48"
           inkscape:connector-curvature="0" />
        <path
           d="m 120.91934,178.85353 q -0.12402,0 -0.12402,-0.31419 0,-0.13229 0.13229,-0.21497 0.0909,-0.0496 0.2067,-0.0992 0.55397,-0.21498 0.68627,-0.84336 l 0.0248,-0.11576 q 0.0413,-0.19843 0.0413,-0.47129 0.008,-0.23151 0.0165,-0.25631 0.008,-0.0331 0.008,-0.0909 l -0.008,-0.14883 v -1.62057 q 0,-0.61185 0.0496,-3.41478 l 0.008,-1.81074 q -0.0165,-0.23151 -0.0165,-0.47129 0,-0.23978 0.0248,-0.31419 0.0331,-0.0827 0.091,-0.10749 0.0579,-0.0331 0.11575,-0.0413 l 0.091,0.008 q 0.0744,0 0.13229,-0.008 0.091,0 0.12403,0.0165 0.0413,0.008 0.0413,0.0992 0.0248,0.14883 0.0248,0.28939 -0.0413,0.31419 -0.0413,0.73587 v 1.31465 q 0,0.62839 -0.0165,1.25677 -0.0331,1.34772 -0.0331,3.34864 0,0.96738 -0.008,0.96738 v -0.008 q -0.0579,1.07487 -0.24804,1.42214 -0.20671,0.38033 -0.57878,0.63665 -0.42995,0.22324 -0.74414,0.25631 z m 1.53789,-11.62513 q -0.44648,0 -0.47129,-0.10748 l -0.0165,-0.10749 q -0.0413,-0.33073 -0.0413,-0.47956 0,-0.28938 0.0992,-0.31419 0.0992,-0.0331 0.38034,-0.0331 l 0.0579,0.008 q 0.13229,0.0165 0.13229,0.30592 0,0.14883 -0.0496,0.49609 -0.0331,0.21498 -0.091,0.23151 z"
           style="stroke-width:0.26458332"
           id="path50"
           inkscape:connector-curvature="0" />
        <path
           d="m 125.75625,177.10067 q -0.51263,-0.008 -1.02526,-0.26458 -0.33073,-0.10749 -0.59531,-0.33073 -0.14883,-0.12403 -0.16536,-0.28112 0,-0.0662 0.0827,-0.12403 0.0827,-0.0661 0.15709,-0.0827 0.0744,-0.0165 0.10749,-0.0165 0.0661,0 0.10749,0.0331 0.0992,0.0909 0.47956,0.26458 0.49609,0.24805 0.9343,0.24805 0.53744,0 0.7028,-0.34727 0.14883,-0.30592 0.14883,-0.67799 v -0.19017 q 0,-0.83509 -0.32246,-1.59577 -0.33073,-0.68626 -0.82682,-1.20716 -0.21498,-0.21498 -0.47956,-0.5457 -0.61185,-0.678 -0.78548,-1.14929 -0.16536,-0.47129 -0.16536,-0.97565 0,-0.87643 0.8847,-1.33118 0.45475,-0.21498 0.96738,-0.21498 0.49609,0 0.99219,0.23978 0.19843,0.0909 0.37207,0.26458 0.13229,0.10749 0.19843,0.30593 v 0.008 q 0,0.0496 -0.0992,0.11575 -0.0992,0.0662 -0.1819,0.0744 -0.0827,0.008 -0.0992,0.008 -0.12403,0 -0.23152,-0.0827 -0.14056,-0.12402 -0.37207,-0.22324 -0.23151,-0.10749 -0.37207,-0.12402 -0.14056,-0.0248 -0.26458,-0.0248 -0.93431,0 -1.15755,0.94258 l -0.008,0.14883 q 0,0.50436 0.42168,1.19889 0.14883,0.23978 0.3638,0.42168 0.17364,0.16537 0.31419,0.35553 0.14056,0.19017 0.29766,0.37207 0.20671,0.22325 0.3638,0.47129 0.81856,1.28158 0.81856,2.52181 0,0.38861 -0.091,0.77722 l -0.0165,0.0413 q -0.16536,0.55397 -0.50436,0.75241 -0.45475,0.21497 -0.95085,0.22324 z"
           style="stroke-width:0.26458332"
           id="path52"
           inkscape:connector-curvature="0" />
      </g>
      <g
         aria-label="{"
         style="font-style:normal;font-variant:normal;font-weight:normal;font-stretch:normal;font-size:16.93333244px;line-height:1.25;font-family:'Timbra Sans';-inkscape-font-specification:'Timbra Sans';letter-spacing:0px;word-spacing:0px;fill:#666666;fill-opacity:1;stroke:none;stroke-width:0.26458332"
         id="text20">
        <path
           d="m 85.647072,179.27521 h -0.05788 q -0.132292,0 -0.396875,-0.0331 -0.413412,-0.0496 -0.496094,-0.0744 -0.51263,-0.2067 -0.768945,-0.66972 -0.181901,-0.38034 -0.198438,-0.68626 -0.0083,-0.29766 -0.0083,-0.46303 0,-0.28112 0.01654,-0.55397 0.02481,-0.28112 0.03307,-0.52916 0.0083,-0.81856 0.09922,-2.23243 l 0.04961,-0.74414 q 0,-0.1819 -0.01654,-0.3638 -0.04134,-0.47129 -0.413412,-0.65319 -0.214973,-0.0992 -0.330729,-0.12402 -0.157096,-0.0331 -0.206705,-0.12403 -0.04134,-0.0909 -0.04134,-0.22324 0,-0.19017 0.107487,-0.27285 0.115756,-0.091 0.239779,-0.14056 0.132292,-0.0496 0.223242,-0.10749 0.347266,-0.25631 0.429948,-0.62838 0.08268,-0.37207 0.08268,-0.76895 0,-0.15709 0.0083,-0.30592 l 0.0083,-0.43822 q 0,-0.3886 -0.03307,-0.78548 -0.04961,-0.46302 -0.04961,-0.91777 0,-0.24805 -0.01654,-0.4961 l -0.0083,-0.34726 q 0,-0.23151 0.01654,-0.46302 0.03307,-0.39688 0.264584,-0.75241 0.223242,-0.26458 0.479557,-0.37207 0.256315,-0.11576 0.562239,-0.1819 l 0.239779,-0.0579 q 0.04961,-0.0165 0.107487,-0.0165 0.190169,0 0.28112,0.16537 0.01654,0.0413 0.01654,0.11575 0,0.14883 -0.04961,0.23978 -0.04961,0.0909 -0.124023,0.0909 h -0.01654 q -0.08268,-0.0165 -0.173633,-0.0165 -0.206705,0 -0.421679,0.0827 -0.305925,0.11575 -0.454753,0.38034 -0.107487,0.22324 -0.115755,0.41341 -0.0083,0.19017 -0.0083,0.31419 l 0.0083,0.25632 0.0083,0.31419 0.02481,0.56224 q 0.0248,0.23978 0.0248,0.47956 l -0.0083,0.39687 q 0,0.30593 0.01654,0.60358 0.0248,0.29766 0.0248,0.57878 v 0.23151 q 0,0.59531 -0.223242,1.14928 -0.239778,0.52917 -0.611849,0.678 0.14056,0.0331 0.314193,0.19017 0.181901,0.15709 0.28112,0.33072 0.115755,0.20671 0.115755,0.339 0.0083,0.13229 0.0083,0.1819 0,0.17364 -0.02481,0.34727 -0.01654,0.17363 -0.01654,0.339 0,1.20716 -0.06615,2.45566 -0.04961,0.39687 -0.04961,1.18236 l -0.01654,0.50436 q 0,0.47956 0.165365,0.69453 0.09922,0.12402 0.413411,0.26458 0.14056,0.0661 0.272852,0.0744 0.14056,0 0.380338,0.0331 0.115756,0.0165 0.181901,0.0413 0.07442,0.0248 0.07442,0.1819 0,0.26459 -0.157097,0.33073 z"
           style="fill:#666666;stroke-width:0.26458332"
           id="path55"
           inkscape:connector-curvature="0" />
      </g>
      <g
         aria-label="{"
         transform="scale(-1,1)"
         style="font-style:normal;font-variant:normal;font-weight:normal;font-stretch:normal;font-size:16.93333244px;line-height:1.25;font-family:'Timbra Sans';-inkscape-font-specification:'Timbra Sans';letter-spacing:0px;word-spacing:0px;fill:#666666;fill-opacity:1;stroke:none;stroke-width:0.26458332"
         id="text24">
        <path
           d="m -129.33637,179.27521 h -0.0579 q -0.13229,0 -0.39687,-0.0331 -0.41342,-0.0496 -0.4961,-0.0744 -0.51263,-0.2067 -0.76894,-0.66972 -0.1819,-0.38034 -0.19844,-0.68626 -0.008,-0.29766 -0.008,-0.46303 0,-0.28112 0.0165,-0.55397 0.0248,-0.28112 0.0331,-0.52916 0.008,-0.81856 0.0992,-2.23243 l 0.0496,-0.74414 q 0,-0.1819 -0.0165,-0.3638 -0.0413,-0.47129 -0.41341,-0.65319 -0.21497,-0.0992 -0.33073,-0.12402 -0.1571,-0.0331 -0.2067,-0.12403 -0.0413,-0.0909 -0.0413,-0.22324 0,-0.19017 0.10749,-0.27285 0.11576,-0.091 0.23978,-0.14056 0.13229,-0.0496 0.22324,-0.10749 0.34727,-0.25631 0.42995,-0.62838 0.0827,-0.37207 0.0827,-0.76895 0,-0.15709 0.008,-0.30592 l 0.008,-0.43822 q 0,-0.3886 -0.0331,-0.78548 -0.0496,-0.46302 -0.0496,-0.91777 0,-0.24805 -0.0165,-0.4961 l -0.008,-0.34726 q 0,-0.23151 0.0165,-0.46302 0.0331,-0.39688 0.26458,-0.75241 0.22324,-0.26458 0.47956,-0.37207 0.25631,-0.11576 0.56224,-0.1819 l 0.23978,-0.0579 q 0.0496,-0.0165 0.10748,-0.0165 0.19017,0 0.28112,0.16537 0.0165,0.0413 0.0165,0.11575 0,0.14883 -0.0496,0.23978 -0.0496,0.0909 -0.12402,0.0909 h -0.0165 q -0.0827,-0.0165 -0.17363,-0.0165 -0.20671,0 -0.42168,0.0827 -0.30593,0.11575 -0.45475,0.38034 -0.10749,0.22324 -0.11576,0.41341 -0.008,0.19017 -0.008,0.31419 l 0.008,0.25632 0.008,0.31419 0.0248,0.56224 q 0.0248,0.23978 0.0248,0.47956 l -0.008,0.39687 q 0,0.30593 0.0165,0.60358 0.0248,0.29766 0.0248,0.57878 v 0.23151 q 0,0.59531 -0.22324,1.14928 -0.23978,0.52917 -0.61185,0.678 0.14056,0.0331 0.31419,0.19017 0.1819,0.15709 0.28112,0.33072 0.11576,0.20671 0.11576,0.339 0.008,0.13229 0.008,0.1819 0,0.17364 -0.0248,0.34727 -0.0165,0.17363 -0.0165,0.339 0,1.20716 -0.0661,2.45566 -0.0496,0.39687 -0.0496,1.18236 l -0.0165,0.50436 q 0,0.47956 0.16537,0.69453 0.0992,0.12402 0.41341,0.26458 0.14056,0.0661 0.27285,0.0744 0.14056,0 0.38034,0.0331 0.11575,0.0165 0.1819,0.0413 0.0744,0.0248 0.0744,0.1819 0,0.26459 -0.15709,0.33073 z"
           style="fill:#666666;stroke-width:0.26458332"
           id="path58"
           inkscape:connector-curvature="0" />
      </g>
    </g>
  </g>
</svg>
